#!OML:ASF F:\VICON\USERDATA\INSTALL\rory3\rory3.ASF
:FULLY-SPECIFIED
:DEGREES
1967
root 7.41611 16.836 -4.24108 -150.145 -94.8955 158.781
lowerback 10.2866 0.15523 -1.72876
upperback 5.08586 -0.138265 -0.532248
thorax -0.480021 -0.167946 0.437015
lowerneck -13.9224 3.78781 -0.978264
upperneck -2.31329 4.97677 1.87077
head 1.55193 2.47738 1.03164
rclavicle 6.95746e-015 -7.55382e-015
rhumerus 13.8483 22.0111 -81.0454
rradius 135.022
rwrist -6.69727
rhand -44.2384 9.84879
rfingers 7.12502
rthumb -17.0507 -19.4229
lclavicle 6.95746e-015 -7.55382e-015
lhumerus 5.08717 -11.864 82.1246
lradius 138.713
lwrist 3.83571
lhand -30.5412 15.3758
lfingers 7.12502
lthumb -3.84008 45.3209
rfemur -11.3419 9.90757 15.6334
rtibia 49.4362
rfoot -38.8441 -10.6697
rtoes -17.2214
lfemur -35.9901 -0.696066 -4.32023
ltibia 62.8929
lfoot -23.4415 -1.79419
ltoes -21.6072
1968
root 7.35089 16.8517 -4.1718 -149.309 -94.4152 157.586
lowerback 10.0339 0.241314 -1.52116
upperback 4.9321 0.00730644 -0.48857
thorax -0.504926 -0.0877161 0.3504
lowerneck -13.2696 3.80139 -1.37889
upperneck -1.60962 5.08671 1.55346
head 1.66678 2.53632 1.00133
rclavicle 1.35174e-014 -7.95139e-015
rhumerus 13.8859 22.0846 -81.2643
rradius 134.808
rwrist -7.04127
rhand -44.2169 9.76921
rfingers 7.12502
rthumb -17.03 -19.5043
lclavicle 1.35174e-014 -7.95139e-015
lhumerus 5.40117 -11.7856 81.7472
lradius 138.779
lwrist 4.21709
lhand -30.3842 15.1831
lfingers 7.12502
lthumb -3.68844 45.1309
rfemur -10.5771 10.5363 15.4126
rtibia 49.034
rfoot -38.5862 -11.0561
rtoes -17.7524
lfemur -34.5097 -0.26231 -4.91602
ltibia 62.1762
lfoot -24.4619 -1.17396
ltoes -22.4954
1969
root 7.274 16.8814 -4.095 -154.212 -93.6136 162.015
lowerback 9.85336 0.468182 -1.73285
upperback 4.79065 0.294735 -0.632665
thorax -0.557995 0.057401 0.291615
lowerneck -12.5661 3.80079 -1.52658
upperneck -0.897967 5.13665 1.19569
head 1.78257 2.55961 0.910581
rclavicle 4.17448e-015 -3.49861e-014
rhumerus 14.0731 21.9601 -81.3026
rradius 134.612
rwrist -7.39225
rhand -44.0377 9.83817
rfingers 7.12502
rthumb -16.8575 -19.4501
lclavicle 4.17448e-015 -3.49861e-014
lhumerus 5.90605 -11.0216 81.4334
lradius 138.88
lwrist 4.24182
lhand -27.7222 14.1002
lfingers 7.12502
lthumb -1.11759 44.0771
rfemur -9.75496 10.9448 14.5978
rtibia 48.7966
rfoot -37.9596 -11.4536
rtoes -19.216
lfemur -32.6047 0.0430627 -6.13076
ltibia 61.1201
lfoot -25.7155 0.313959
ltoes -24.3391
1970
root 7.18928 16.9226 -4.01573 -164.329 -92.8502 171.709
lowerback 9.63127 0.765696 -2.04008
upperback 4.58729 0.669322 -0.848584
thorax -0.654372 0.247127 0.204386
lowerneck -11.7118 3.80396 -1.44926
upperneck -0.223984 5.15551 0.871317
head 1.86347 2.56621 0.785743
rclavicle 1.74931e-014 -1.19271e-015
rhumerus 14.2769 21.788 -80.9298
rradius 134.463
rwrist -7.54565
rhand -44.1341 9.5571
rfingers 7.12502
rthumb -16.9503 -19.7233
lclavicle 1.74931e-014 -1.19271e-015
lhumerus 6.39648 -11.2022 80.9803
lradius 139.172
lwrist 5.11156
lhand -26.8358 13.5664
lfingers 7.12502
lthumb -0.261475 43.546
rfemur -9.07433 11.2952 13.56
rtibia 48.7217
rfoot -37.1788 -11.2247
rtoes -19.905
lfemur -30.6643 0.324616 -7.53861
ltibia 59.7597
lfoot -26.7446 1.88203
ltoes -25.6947
1971
root 7.10506 16.9757 -3.93071 -170.52 -92.3136 177.786
lowerback 9.12091 0.97507 -1.89351
upperback 4.27058 0.983574 -0.93858
thorax -0.704524 0.415947 0.00265161
lowerneck -10.789 3.87071 -1.41934
upperneck 0.459737 5.26255 0.584493
head 1.93124 2.61648 0.683532
rclavicle -5.76476e-015 -6.36111e-015
rhumerus 14.6907 21.5369 -81.0743
rradius 134.37
rwrist -7.48537
rhand -43.9403 9.2961
rfingers 7.12502
rthumb -16.7637 -20.0002
lclavicle -5.76476e-015 -6.36111e-015
lhumerus 6.86584 -11.6346 80.357
lradius 139.569
lwrist 5.99542
lhand -27.5601 14.0641
lfingers 7.12502
lthumb -0.961044 44.0416
rfemur -8.91974 11.4569 12.8272
rtibia 48.8132
rfoot -36.0401 -10.9521
rtoes -20.5748
lfemur -29.1841 0.569034 -8.48621
ltibia 58.2702
lfoot -27.3684 2.18512
ltoes -23.8324
1972
root 7.02396 17.037 -3.83276 -173.688 -91.8195 180.749
lowerback 8.74715 1.08397 -1.41409
upperback 3.92626 1.18777 -0.939338
thorax -0.848756 0.532907 -0.283416
lowerneck -9.76244 3.98783 -1.59324
upperneck 1.17243 5.4554 0.363069
head 1.98103 2.70876 0.637622
rclavicle -1.45113e-014 2.26615e-014
rhumerus 15.1787 21.5038 -80.9963
rradius 134.384
rwrist -7.58657
rhand -43.7544 9.15858
rfingers 7.12502
rthumb -16.5847 -20.1528
lclavicle -1.45113e-014 2.26615e-014
lhumerus 7.20902 -11.7522 79.6777
lradius 140.006
lwrist 6.65474
lhand -28.7474 14.6226
lfingers 7.12502
lthumb -2.10779 44.592
rfemur -8.82746 11.3683 12.2553
rtibia 49.0533
rfoot -34.3483 -11.0088
rtoes -22.2994
lfemur -27.6889 0.732898 -9.191
ltibia 56.8361
lfoot -27.6721 2.01275
ltoes -20.6833
1973
root 6.94532 17.1029 -3.7297 -186.392 -91.268 192.993
lowerback 8.68779 1.21455 -1.16173
upperback 3.64193 1.3904 -0.89901
thorax -1.10605 0.642486 -0.40456
lowerneck -8.81058 4.09791 -1.91353
upperneck 1.98595 5.64487 0.253189
head 2.06974 2.79749 0.654453
rclavicle -8.99501e-015 1.25234e-014
rhumerus 15.8245 21.541 -80.6504
rradius 134.532
rwrist -7.97503
rhand -43.7396 9.33965
rfingers 7.12502
rthumb -16.5705 -19.9729
lclavicle -8.99501e-015 1.25234e-014
lhumerus 7.52027 -11.5145 79.0247
lradius 140.477
lwrist 7.1791
lhand -29.1125 14.2319
lfingers 7.12502
lthumb -2.46037 44.1974
rfemur -8.60934 11.3457 11.4906
rtibia 49.4621
rfoot -32.4122 -10.6635
rtoes -23.2736
lfemur -25.9704 0.906373 -10.0556
ltibia 55.525
lfoot -27.7117 2.48528
ltoes -19.2096
1974
root 6.86236 17.1751 -3.62702 -213.574 -90.7436 219.536
lowerback 8.75012 1.37326 -0.888704
upperback 3.46134 1.62822 -0.798759
thorax -1.32262 0.765976 -0.481136
lowerneck -7.99603 4.21823 -2.38851
upperneck 2.80854 5.84746 0.333351
head 2.17523 2.89212 0.761056
rclavicle 1.83379e-014 -2.98177e-015
rhumerus 16.6262 21.5417 -80.266
rradius 134.742
rwrist -8.32827
rhand -43.4507 9.4283
rfingers 7.12502
rthumb -16.2924 -19.9072
lclavicle 1.83379e-014 -2.98177e-015
lhumerus 7.93989 -10.9507 78.4252
lradius 140.918
lwrist 7.57036
lhand -29.0079 13.6397
lfingers 7.12502
lthumb -2.35932 43.6064
rfemur -8.33765 11.4245 10.8147
rtibia 50.0305
rfoot -30.3481 -10.0251
rtoes -23.8437
lfemur -24.1743 1.20849 -10.7868
ltibia 54.452
lfoot -27.5465 2.62793
ltoes -17.9852
1975
root 6.76885 17.2596 -3.50758 -280.148 -91.9105 284.993
lowerback 9.23268 1.70836 -1.50836
upperback 3.47098 1.99307 -1.14617
thorax -1.58591 0.942262 -0.541894
lowerneck -7.23933 4.32773 -2.57998
upperneck 3.57304 6.00471 0.286629
head 2.28388 2.9601 0.77785
rclavicle -2.22142e-014 1.19768e-014
rhumerus 17.5134 21.3525 -79.9013
rradius 134.923
rwrist -8.45639
rhand -42.9246 9.70876
rfingers 7.12502
rthumb -15.7857 -19.6676
lclavicle -2.22142e-014 1.19768e-014
lhumerus 8.49403 -10.4331 77.8455
lradius 141.389
lwrist 7.79728
lhand -29.2294 13.9058
lfingers 7.12502
lthumb -2.57326 43.8701
rfemur -7.75435 11.3237 8.64199
rtibia 50.784
rfoot -27.8373 -9.31606
rtoes -25.3573
lfemur -21.772 1.51089 -12.9638
ltibia 53.4976
lfoot -27.2553 2.88952
ltoes -17.4593
1976
root 6.68434 17.3467 -3.39519 -292.593 -92.8024 296.866
lowerback 9.30811 1.95663 -1.28096
upperback 3.30402 2.33392 -1.40885
thorax -1.78053 1.11613 -0.98222
lowerneck -6.35134 4.40241 -2.38278
upperneck 4.20092 6.07681 0.129369
head 2.33928 2.98804 0.683528
rclavicle 2.5432e-014 -1.08089e-014
rhumerus 18.3617 20.9945 -79.5337
rradius 135.205
rwrist -8.47899
rhand -42.8797 9.94319
rfingers 7.12502
rthumb -15.7425 -19.4366
lclavicle 2.5432e-014 -1.08089e-014
lhumerus 9.03326 -10.3417 77.2371
lradius 141.981
lwrist 7.63324
lhand -29.1558 14.8864
lfingers 7.12502
lthumb -2.5022 44.8515
rfemur -7.97832 10.9945 7.24945
rtibia 51.7097
rfoot -24.871 -8.95683
rtoes -26.4865
lfemur -20.3482 1.9958 -14.2328
ltibia 52.8398
lfoot -26.4005 3.25811
ltoes -18.4106
